<?xml version="1.0" encoding="UTF-8"?>
<svg version="1.1" xmlns="http://www.w3.org/2000/svg" viewBox="0 0 600 600" width="100%" height="100%">
<style>
  path { fill: #000000; }
  @media (prefers-color-scheme: dark) {
    path { fill: #ffffff; }
  }
</style>
<path d="M0 0 C1.46303429 -0.00463722 2.92606738 -0.00966307 4.38909912 -0.01504517 C8.34199333 -0.02808573 12.29487062 -0.03459792 16.24778295 -0.03905582 C18.72559471 -0.04200061 21.20340199 -0.04610801 23.68121147 -0.05056 C31.457457 -0.0642141 39.23369211 -0.07389046 47.00994879 -0.07776189 C55.94215526 -0.08223507 64.87420813 -0.09975732 73.80636793 -0.12876248 C80.74007854 -0.15048511 87.67374626 -0.16047181 94.60749048 -0.16180301 C98.73494457 -0.16284366 102.86225389 -0.16859159 106.98967171 -0.18662262 C110.87957335 -0.20328724 114.76922422 -0.20517131 118.65914917 -0.19648361 C120.07310605 -0.1957229 121.48707747 -0.19992532 122.90099907 -0.20994186 C144.01010838 -0.35050618 158.82885577 4.27333836 175.37084961 19.16113281 C185.28800202 35.16381057 187.73611289 47.53270541 187.37084961 66.16113281 C184.37084961 69.16113281 184.37084961 69.16113281 181.37084961 70.16113281 C163.22084961 70.16113281 145.07084961 70.16113281 126.37084961 70.16113281 C126.24838867 78.88035156 126.12592773 87.59957031 125.99975586 96.58300781 C125.908891 102.85842284 125.81750231 109.13382109 125.72290039 115.40917969 C125.70376284 116.67867415 125.70376284 116.67867415 125.68423867 117.97381496 C125.03158662 161.0764084 124.26002063 204.17724593 123.51729453 247.27835798 C123.35278496 256.82586498 123.18870416 266.37337927 123.02490234 275.92089844 C123.01321708 276.60199021 123.00153183 277.28308197 122.98949247 277.98481289 C122.9308211 281.40468232 122.8721566 284.82455187 122.81349552 288.24442148 C121.37411913 372.15677345 121.37411913 372.15677345 118.37084961 376.16113281 C93.36434746 376.16113281 78.96167105 370.20271913 60.37084961 353.16113281 C50.21421248 336.23340426 48.30575614 322.0011394 50.37084961 303.16113281 C49.86336182 303.41282227 49.35587402 303.66451172 48.83300781 303.92382812 C31.42209906 312.50636577 15.32729613 318.22586153 -4.25415039 318.91113281 C-5.39988525 318.95133545 -6.54562012 318.99153809 -7.72607422 319.03295898 C-36.17243371 319.79733327 -65.34457277 310.56765947 -86.62915039 291.16113281 C-98.62915039 278.97479741 -98.62915039 278.97479741 -98.62915039 274.16113281 C-100.90135913 275.03388003 -100.90135913 275.03388003 -101.79980469 277.76196289 C-110.04576783 296.06529327 -118.41939355 314.28634685 -127.24243164 332.3203125 C-128.50693076 334.9107547 -129.75760407 337.50733199 -131.00415039 340.10644531 C-138.5026127 355.62003017 -145.74898503 364.22105013 -161.62915039 372.16113281 C-177.17382808 376.04730223 -188.30814707 375.87528768 -203.62915039 371.16113281 C-218.89541663 360.47474645 -225.60007675 349.27596042 -232.75415039 332.47363281 C-233.03260803 331.82563721 -233.31106567 331.1776416 -233.59796143 330.51000977 C-239.14644767 317.59138034 -244.23303298 304.50535837 -249.24423218 291.37086487 C-252.08190414 283.9488109 -255.00702975 276.56163844 -257.93328857 269.17416382 C-272.25179637 233.02402014 -286.3001278 196.76778591 -300.33435059 160.50653076 C-301.20915811 158.24627455 -302.08407964 155.98606245 -302.95910645 153.72589111 C-313.61229883 126.20842889 -324.21892436 98.67493574 -334.67105103 71.08041382 C-342.51262002 50.38393599 -350.53431028 29.75971569 -358.62915039 9.16113281 C-358.62915039 7.51113281 -358.62915039 5.86113281 -358.62915039 4.16113281 C-352.68726199 0.19987388 -342.91556454 2.07679338 -335.89038086 2.05126953 C-333.65793942 2.04129034 -331.42551079 2.02770221 -329.19311523 2.01025391 C-306.14138676 1.83475933 -286.62667381 3.16333421 -268.62915039 19.16113281 C-251.23258572 40.03701042 -244.3563761 70.02317123 -235.45605469 95.26931763 C-229.0699229 113.35929971 -222.38504685 131.33195241 -215.62915039 149.28613281 C-215.37073616 149.97288338 -215.11232193 150.65963394 -214.84607697 151.36719513 C-212.53764266 157.50102456 -210.22769812 163.63428479 -207.91638184 169.76702881 C-203.51507704 181.44802931 -199.15898362 193.14559737 -194.81665039 204.84863281 C-188.82769556 220.98105802 -182.76707829 237.08475771 -176.62915039 253.16113281 C-174.29202417 250.22125143 -172.5514514 247.25117677 -170.87915039 243.89160156 C-170.35877197 242.84955566 -169.83839355 241.80750977 -169.30224609 240.73388672 C-168.75012451 239.61675293 -168.19800293 238.49961914 -167.62915039 237.34863281 C-167.05318115 236.19024902 -166.47721191 235.03186523 -165.88378906 233.83837891 C-162.17283352 226.35110353 -158.53297398 218.83153995 -154.94165039 211.28613281 C-144.51305245 189.40858491 -134.18255677 167.93916484 -118.62915039 149.16113281 C-118.14800781 148.57847656 -117.66686523 147.99582031 -117.17114258 147.39550781 C-94.07215623 119.58759627 -65.13361498 102.23511062 -28.75415039 98.41113281 C-26.71399175 98.29667791 -24.67171249 98.21846789 -22.62915039 98.16113281 C-21.86876465 98.13535156 -21.10837891 98.10957031 -20.32495117 98.08300781 C6.41479782 97.26916725 28.01555233 104.95157882 50.37084961 119.16113281 C50.36299438 118.33597168 50.36299438 118.33597168 50.35498047 117.49414062 C50.22153112 101.0275042 50.68604985 84.61271854 51.37084961 68.16113281 C49.50891968 68.39884399 49.50891968 68.39884399 47.609375 68.64135742 C41.92709597 69.2701975 36.26694419 69.38637527 30.55444336 69.47753906 C29.45737564 69.49832016 28.36030792 69.51910126 27.22999573 69.54051208 C23.75617192 69.60543078 20.28227829 69.66462203 16.80834961 69.72363281 C14.44050411 69.766873 12.07266543 69.81048896 9.70483398 69.85449219 C3.92691109 69.96105229 -1.85107988 70.0629213 -7.62915039 70.16113281 C-8.16024414 71.10214844 -8.69133789 72.04316406 -9.23852539 73.01269531 C-9.95194943 74.27057454 -10.66549774 75.52838328 -11.37915039 76.78613281 C-11.72719727 77.40359375 -12.07524414 78.02105469 -12.43383789 78.65722656 C-18.90070221 90.0341175 -18.90070221 90.0341175 -26.21118164 92.25097656 C-29.53268317 93.13544497 -32.84411648 93.83416378 -36.21459961 94.49707031 C-61.97359174 99.58115046 -84.54831847 110.48957605 -105.77368164 125.84863281 C-109.61258281 128.56415027 -110.14246777 128.16113281 -115.62915039 128.16113281 C-116.28915039 127.50113281 -116.94915039 126.84113281 -117.62915039 126.16113281 C-117.62915039 120.16113281 -117.62915039 120.16113281 -116.77857971 118.47344971 C-113.80380508 112.56885169 -110.83511587 106.66122096 -107.86962891 100.75195312 C-106.76858406 98.55979574 -105.66609303 96.36836401 -104.56201172 94.17773438 C-98.65352243 82.45211033 -92.87513618 70.70750524 -87.55691528 58.70117188 C-85.09670463 53.1542172 -82.49261461 47.73009874 -79.56665039 42.41113281 C-79.17799805 41.69054687 -78.7893457 40.96996094 -78.38891602 40.22753906 C-69.14438342 23.10803426 -53.10085704 9.6297176 -34.54321289 3.77441406 C-22.9414217 0.60921951 -11.96117199 0.00889424 0 0 Z M-33.37915039 19.28613281 C-34.38461914 19.63933594 -35.39008789 19.99253906 -36.42602539 20.35644531 C-52.8788149 26.36579751 -62.65683856 40.69916604 -70.25415039 55.59863281 C-70.75269531 56.56422119 -71.25124023 57.52980957 -71.76489258 58.5246582 C-77.96147548 70.61721483 -83.80438824 82.8863115 -89.62915039 95.16113281 C-89.29915039 96.15113281 -88.96915039 97.14113281 -88.62915039 98.16113281 C-85.63176393 97.01056124 -82.70858075 95.74964266 -79.80102539 94.39160156 C-63.82378124 86.96996085 -47.81997651 82.81587537 -30.62915039 79.16113281 C-25.67915039 70.25113281 -25.67915039 70.25113281 -20.62915039 61.16113281 C3.17104974 37.36093268 6.62908796 53.91423232 65.37084961 53.16113281 C64.62284753 142.44895979 64.62284753 142.44895979 63.43334961 175.97363281 C63.3770639 177.66020996 63.3770639 177.66020996 63.31964111 179.38085938 C62.4168012 205.8000836 57.81324283 225.5803159 40.37084961 246.16113281 C24.31394012 257.87833704 7.72010111 265.42161118 -12.50415039 265.22363281 C-13.82286133 265.21686523 -13.82286133 265.21686523 -15.16821289 265.20996094 C-34.86065598 265.10293679 -52.20053622 256.02141935 -66.62915039 243.16113281 C-67.75658705 241.41270163 -68.88100459 239.66232341 -70.00415039 237.91113281 C-70.63063477 236.93660156 -71.25711914 235.96207031 -71.90258789 234.95800781 C-73.28049891 232.72591666 -74.51227681 230.53025859 -75.62915039 228.16113281 C-76.28915039 228.16113281 -76.94915039 228.16113281 -77.62915039 228.16113281 C-86.3774921 244.6918285 -86.3774921 244.6918285 -87.62915039 263.16113281 C-77.89729272 282.62484816 -60.99408629 292.00845298 -41.31665039 298.84863281 C-15.32162198 307.40885003 14.17177578 304.20134403 38.53491211 292.15722656 C47.8301852 287.30670386 55.6596613 281.22532073 63.37084961 274.16113281 C64.69084961 273.50113281 66.01084961 272.84113281 67.37084961 272.16113281 C67.29979507 272.76001312 67.22874054 273.35889343 67.15553284 273.97592163 C66.46122342 280.26307842 66.23737137 286.44104089 66.27319336 292.76269531 C66.27460831 293.72517181 66.27602325 294.68764832 66.27748108 295.67929077 C66.28302154 298.71493813 66.29556244 301.75050823 66.30834961 304.78613281 C66.31337232 306.86035049 66.31793387 308.93456933 66.32202148 311.00878906 C66.35153122 324.6206244 67.31155176 334.07218604 75.37084961 346.16113281 C80.95830995 350.95038454 82.76168724 352.3481339 88.68334961 355.09863281 C89.85510742 355.64390625 91.02686523 356.18917969 92.23413086 356.75097656 C97.39524701 359.07122928 99.22076995 359.16113281 105.37084961 359.16113281 C106.27889884 346.78939419 106.62682804 334.44770399 106.83569336 322.04711914 C106.87331957 319.97001089 106.91126217 317.89290836 106.94949341 315.81581116 C107.05180177 310.21066281 107.14979105 304.60544643 107.24702835 299.00020814 C107.35064556 293.07420237 107.45849712 287.14827364 107.56591797 281.22233582 C107.76932593 269.96820745 107.96928969 258.71402085 108.16785717 247.45980614 C108.5212595 227.43765 108.88110926 207.41560895 109.24129963 187.39357394 C109.36690114 180.40471674 109.49121983 173.41583833 109.61439705 166.426938 C109.71085763 160.96047466 109.80818269 155.49402701 109.90600586 150.02758789 C109.92474007 148.97974455 109.94347427 147.93190122 109.96277618 146.85230505 C110.2745874 129.51342742 110.6426262 112.17611027 111.05751038 94.83939075 C111.36148916 81.94444707 111.49448134 69.06004289 111.37084961 56.16113281 C112.6582605 56.16898804 112.6582605 56.16898804 113.97167969 56.17700195 C133.13427678 56.27774363 152.22384611 56.06025525 171.37084961 55.16113281 C171.37084961 42.49425509 168.11018305 36.11170438 160.37084961 26.16113281 C153.30042743 20.71661989 153.30042743 20.71661989 146.37084961 18.22363281 C145.25709961 17.86398438 144.14334961 17.50433594 142.99584961 17.13378906 C134.47851111 14.84842561 126.01399692 15.01285502 117.25073242 15.01586914 C115.83061638 15.01287261 114.41050114 15.00946895 112.99038696 15.00569153 C109.15133004 14.99689686 105.31229544 14.99451531 101.47322941 14.99387574 C99.06899092 14.99316258 96.66475803 14.99102323 94.26052094 14.98837852 C85.85653832 14.97913961 77.45257151 14.97504175 69.04858398 14.97583008 C61.2415232 14.97643025 53.43453165 14.96588648 45.62748837 14.95008641 C38.90277575 14.93696666 32.17808563 14.93164805 25.45336032 14.93228549 C21.44677971 14.9325392 17.44026067 14.92975849 13.43369293 14.91910744 C9.66122545 14.90935162 5.88887744 14.90939795 2.11640549 14.91662407 C0.09105595 14.9181507 -1.93429378 14.90987549 -3.95962524 14.90118408 C-14.09047479 14.93563656 -23.78421317 15.85936952 -33.37915039 19.28613281 Z M-337.62915039 18.16113281 C-336.04692938 27.30054104 -332.50081731 35.69485391 -329.12915039 44.28613281 C-328.45880841 46.00866184 -327.78923126 47.73148868 -327.12036133 49.45458984 C-326.05990272 52.18624678 -324.99896346 54.91770666 -323.93572998 57.64828491 C-320.24849584 67.12000474 -316.62220755 76.61472849 -312.99676514 86.11022949 C-303.29996078 111.49635844 -293.48171386 136.83511486 -283.62915039 162.16113281 C-283.28708557 163.04057556 -282.94502075 163.92001831 -282.59259033 164.82611084 C-277.98613132 176.66795766 -273.36467957 188.50389475 -268.73419189 200.33636475 C-267.58171965 203.2823779 -266.43031209 206.22880564 -265.27905273 209.17529297 C-259.04799586 225.1185208 -252.78460094 241.04888705 -246.49504089 256.96911621 C-245.58524814 259.27227211 -244.67585932 261.57558728 -243.76647949 263.87890625 C-240.07520225 273.2261406 -236.37534168 282.56990788 -232.66104698 291.90802193 C-230.98519343 296.12140865 -229.31206498 300.33582268 -227.6461792 304.55316162 C-226.07094907 308.54035729 -224.48714155 312.52404211 -222.89702988 316.50532532 C-222.31156792 317.97523971 -221.7290366 319.4463255 -221.14975357 320.91868591 C-217.93197734 329.09101071 -214.49023169 336.79906203 -209.62915039 344.16113281 C-209.21407227 344.7982016 -208.79899414 345.43527039 -208.37133789 346.09164429 C-203.05366125 354.15720361 -195.58110124 356.47554756 -186.62915039 359.16113281 C-174.09083411 359.16113281 -166.36660083 358.33609629 -156.62915039 351.16113281 C-140.80981453 332.70524098 -131.93502249 306.99623667 -121.85913086 285.02197266 C-118.83928165 278.43632826 -115.80163806 271.8590343 -112.75415039 265.28613281 C-112.24263428 264.18285645 -111.73111816 263.07958008 -111.20410156 261.94287109 C-106.48498343 251.79590003 -101.63445988 241.71373595 -96.75805664 231.64160156 C-94.7266863 227.44435376 -92.71281378 223.23962731 -90.71899414 219.02441406 C-64.976867 164.60422155 -64.976867 164.60422155 -36.87915039 153.26269531 C-18.25380698 146.94977843 1.84996063 146.97291802 19.68334961 155.66113281 C31.24656208 161.40379922 40.08646014 168.17895488 48.37084961 178.16113281 C49.03084961 178.16113281 49.69084961 178.16113281 50.37084961 178.16113281 C51.64713792 165.77672351 52.62500625 153.61480825 52.37084961 141.16113281 C35.08602523 123.87630843 15.28592584 113.25559353 -9.62915039 112.16113281 C-10.65540527 112.11230957 -10.65540527 112.11230957 -11.70239258 112.0625 C-41.64909385 110.81734106 -68.24790511 120.63173206 -90.75415039 140.59863281 C-92.38729917 142.1107122 -94.01252795 143.63139724 -95.62915039 145.16113281 C-96.37938477 145.85851562 -97.12961914 146.55589844 -97.90258789 147.27441406 C-124.39481987 172.69766124 -139.23424554 211.51666451 -154.1574707 244.4309082 C-158.56576154 254.13024463 -163.21299966 263.70899316 -167.87915039 273.28613281 C-168.26630219 274.08080963 -168.65345398 274.87548645 -169.05233765 275.69424438 C-171.24112162 280.18491557 -173.43359027 284.67377098 -175.62915039 289.16113281 C-176.61915039 289.49113281 -177.60915039 289.82113281 -178.62915039 290.16113281 C-190.76421923 258.87868078 -202.75674125 227.54418044 -214.62915039 196.16113281 C-215.13275802 194.83035774 -215.63637982 193.49958802 -216.14001465 192.16882324 C-238.80536072 132.27575925 -238.80536072 132.27575925 -249.33032227 103.51043701 C-251.45471897 97.70533168 -253.58574778 91.90265598 -255.7166748 86.09994507 C-257.31533662 81.74576785 -258.91077288 77.39048018 -260.49829102 73.03222656 C-261.94612717 69.06134033 -263.41086148 65.09708892 -264.88876343 61.13729858 C-265.40777351 59.73864048 -265.92121061 58.3378961 -266.42788696 56.9347229 C-271.63751829 42.5238928 -277.97368498 29.98886552 -292.06665039 22.94238281 C-302.76435343 18.41643153 -313.31987652 17.87499205 -324.81665039 18.03613281 C-326.67386719 18.04966797 -326.67386719 18.04966797 -328.56860352 18.06347656 C-331.5889955 18.08680005 -334.60896438 18.11952805 -337.62915039 18.16113281 Z M-54.62915039 182.16113281 C-61.46099808 192.51185 -64.47193551 198.43176908 -65.62915039 211.16113281 C-62.47100727 225.37277687 -56.35662952 235.3578971 -44.05493164 243.20800781 C-40.37377864 245.30672674 -36.68614106 246.97651911 -32.75415039 248.53613281 C-32.12436279 248.78637207 -31.4945752 249.03661133 -30.84570312 249.29443359 C-24.51234663 251.72119435 -19.06508008 252.3020328 -12.31665039 252.22363281 C-11.57608398 252.21912109 -10.83551758 252.21460938 -10.07250977 252.20996094 C7.01638775 252.09970999 20.78041052 243.86300604 33.37084961 233.16113281 C42.27352278 220.44302828 43.37084961 215.87428048 43.37084961 200.16113281 C36.65299563 183.36649786 26.66704792 174.21407743 10.50610352 167.03759766 C-14.03421192 156.96445194 -36.42191646 164.7286748 -54.62915039 182.16113281 Z " transform="translate(395.629150390625,109.8388671875)"/>
</svg>
